HIERARCHY
ROOT Hips
{
	OFFSET 0.000000 0.000000 0.000000
	CHANNELS 6 Xposition Yposition Zposition Zrotation Yrotation Xrotation 
	JOINT LHipJoint
	{
		OFFSET 0.000000 0.000000 0.000000
		CHANNELS 3 Zrotation Yrotation Xrotation
		JOINT LeftUpLeg
		{
			OFFSET 1.363060 -1.794630 0.839290
			CHANNELS 3 Zrotation Yrotation Xrotation
			JOINT LeftLeg
			{
				OFFSET 2.448110 -6.726130 0.000000
				CHANNELS 3 Zrotation Yrotation Xrotation
				JOINT LeftFoot
				{
					OFFSET 2.562200 -7.039590 0.000000
					CHANNELS 3 Zrotation Yrotation Xrotation
					JOINT LeftToeBase
					{
						OFFSET 0.157640 -0.433110 2.322550
						CHANNELS 3 Zrotation Yrotation Xrotation
						End Site
						{
							OFFSET 0.000000 0.000000 0.000000
						}
					}
				}
			}
		}
	}
	JOINT RHipJoint
	{
		OFFSET 0.000000 0.000000 0.000000
		CHANNELS 3 Zrotation Yrotation Xrotation
		JOINT RightUpLeg
		{
			OFFSET -1.305520 -1.794630 0.839290
			CHANNELS 3 Zrotation Yrotation Xrotation
			JOINT RightLeg
			{
				OFFSET -2.542530 -6.985550 0.000000
				CHANNELS 3 Zrotation Yrotation Xrotation
				JOINT RightFoot
				{
					OFFSET -2.568260 -7.056230 0.000000
					CHANNELS 3 Zrotation Yrotation Xrotation
					JOINT RightToeBase
					{
						OFFSET -0.164730 -0.452590 2.363150
						CHANNELS 3 Zrotation Yrotation Xrotation
						End Site
						{
							OFFSET 0.000000 0.000000 0.000000
						}
					}
				}
			}
		}
	}
	JOINT LowerBack
	{
		OFFSET 0.000000 0.000000 0.000000
		CHANNELS 3 Zrotation Yrotation Xrotation
		JOINT Spine
		{
			OFFSET 0.028270 2.035590 -0.193380
			CHANNELS 3 Zrotation Yrotation Xrotation
			JOINT Spine1
			{
				OFFSET 0.056720 2.048850 -0.042750
				CHANNELS 3 Zrotation Yrotation Xrotation
				JOINT Neck
				{
					OFFSET 0.000000 0.000000 0.000000
					CHANNELS 3 Zrotation Yrotation Xrotation
					JOINT Neck1
					{
						OFFSET -0.054170 1.746240 0.172020
						CHANNELS 3 Zrotation Yrotation Xrotation
						JOINT Head
						{
							OFFSET 0.104070 1.761360 -0.123970
							CHANNELS 3 Zrotation Yrotation Xrotation
							End Site
							{
								OFFSET 0.000000 0.000000 0.000000
							}
						}
					}
				}
				JOINT LeftShoulder
				{
					OFFSET 0.000000 0.000000 0.000000
					CHANNELS 3 Zrotation Yrotation Xrotation
					JOINT LeftArm
					{
						OFFSET 3.362410 1.200890 -0.311210
						CHANNELS 3 Zrotation Yrotation Xrotation
						JOINT LeftForeArm
						{
							OFFSET 4.983000 -0.000000 -0.000000
							CHANNELS 3 Zrotation Yrotation Xrotation
							JOINT LeftHand
							{
								OFFSET 3.483560 -0.000000 -0.000000
								CHANNELS 3 Zrotation Yrotation Xrotation
								JOINT LeftFingerBase
								{
									OFFSET 0.000000 0.000000 0.000000
									CHANNELS 3 Zrotation Yrotation Xrotation
									JOINT LeftHandIndex1
									{
										OFFSET 0.715260 -0.000000 -0.000000
										CHANNELS 3 Zrotation Yrotation Xrotation
										End Site
										{
											OFFSET 0.000000 0.000000 0.000000
										}
									}
								}
								JOINT LThumb
								{
									OFFSET 0.000000 0.000000 0.000000
									CHANNELS 3 Zrotation Yrotation Xrotation
									End Site
									{
										OFFSET 0.000000 0.000000 0.000000
									}
								}
							}
						}
					}
				}
				JOINT RightShoulder
				{
					OFFSET 0.000000 0.000000 0.000000
					CHANNELS 3 Zrotation Yrotation Xrotation
					JOINT RightArm
					{
						OFFSET -3.136600 1.374050 -0.404650
						CHANNELS 3 Zrotation Yrotation Xrotation
						JOINT RightForeArm
						{
							OFFSET -5.241900 -0.000000 -0.000000
							CHANNELS 3 Zrotation Yrotation Xrotation
							JOINT RightHand
							{
								OFFSET -3.444170 -0.000000 -0.000000
								CHANNELS 3 Zrotation Yrotation Xrotation
								JOINT RightFingerBase
								{
									OFFSET 0.000000 0.000000 0.000000
									CHANNELS 3 Zrotation Yrotation Xrotation
									JOINT RightHandIndex1
									{
										OFFSET -0.622530 -0.000000 -0.000000
										CHANNELS 3 Zrotation Yrotation Xrotation
										End Site
										{
											OFFSET 0.000000 0.000000 0.000000
										}
									}
								}
								JOINT RThumb
								{
									OFFSET 0.000000 0.000000 0.000000
									CHANNELS 3 Zrotation Yrotation Xrotation
									End Site
									{
										OFFSET 0.000000 0.000000 0.000000
									}
								}
							}
						}
					}
				}
			}
		}
	}
}
MOTION
Frames: 4
Frame Time: 0.008333
-37.536365 16.953261 -11.921918 46.970705 71.646146 52.211318 -2.683069 -0.462953 2.636897 -13.954527 10.109368 -10.771850 1.879020 12.415204 37.938944 4.819447 -10.802752 14.833842 5.721500 -14.152900 -43.853400 -2.594167 2.909051 -3.557091 15.959606 6.486808 -40.228774 -22.917700 -22.766559 96.856380 3.343309 -11.665781 2.874682 -1.286600 7.187700 -20.272600 -10.844403 -6.552551 25.180087 1.174601 -9.469730 -2.851462 7.273718 -5.261942 0.002149 -10.496591 -5.479727 -5.052153 5.654912 -7.314973 2.595314 7.864400 -1.377000 -3.976700 1.486072 -0.446800 1.345767 -85.091383 -2.782990 34.948914 60.957037 -56.437769 -39.839197 -1.993387 -1.083034 -18.040006 35.999189 23.730579 17.449800 -7.125000 0.000000 0.000000 10.530100 58.657700 3.541300 -4.678500 0.902782 2.410621 70.694454 1.616296 -18.328262 -95.585573 63.371367 -80.920874 2.019913 1.614769 -31.647668 -24.686885 27.738911 -13.095600 7.125000 0.000000 0.000000 1.672800 -0.335400 1.663700 
-36.846781 17.044106 -11.666101 45.451335 71.384089 51.317511 -2.766153 0.003373 3.278010 -13.074620 10.185298 -8.599981 1.134896 11.441803 35.359658 4.683169 -10.079226 19.205116 3.633700 -11.656400 -34.527000 -2.508718 3.109949 -3.867575 15.942016 8.243866 -42.170770 -21.509159 -23.254925 92.650408 3.381573 -11.632687 2.019888 -0.742400 5.503900 -15.351600 -10.834235 -6.925652 24.010775 1.233376 -9.841555 -2.906137 7.548540 -5.535771 0.233557 -10.757001 -4.883941 -5.324956 5.480075 -6.425403 2.926129 7.811700 -1.016100 -3.820100 1.420009 -0.386398 1.334247 -83.373986 -2.458108 35.979949 64.312680 -57.207322 -42.575672 -2.002577 -0.836148 -16.057271 37.395488 21.289196 16.453900 -7.125000 0.000000 0.000000 12.140300 55.978600 3.304400 -4.828604 0.706253 2.374550 72.074976 1.683083 -16.187723 -100.634368 63.200800 -83.600491 1.770364 1.367389 -32.012495 -25.841102 26.779967 -13.178500 7.125000 0.000000 0.000000 1.065900 -0.999700 1.047300 
-36.159770 17.121974 -11.426419 44.540445 70.877519 51.100335 -2.924725 0.453190 3.940707 -12.538422 10.070376 -6.449668 0.396970 10.370686 32.401631 4.396457 -8.338527 23.626628 2.811100 -10.382700 -30.225200 -2.381912 3.308490 -4.173011 15.405309 9.577788 -43.795030 -19.953308 -23.621145 87.969162 3.470586 -11.792146 2.214803 -0.842500 5.854600 -16.363200 -11.071084 -7.308374 22.804085 1.308597 -10.273747 -2.976295 8.016244 -5.850761 0.408385 -11.060707 -4.286699 -5.535398 5.229264 -5.517242 3.176521 7.636000 -0.642500 -3.774500 1.424343 -0.323927 1.327480 -81.969820 -1.774699 36.670760 68.087317 -57.991923 -45.669686 -1.972033 -0.591010 -14.717422 38.286798 18.800910 14.959700 -7.125000 0.000000 0.000000 12.912400 53.018200 2.581400 -4.950576 0.516944 2.337620 73.562350 1.871115 -13.646162 -105.274771 62.578343 -85.971435 1.604104 1.083116 -31.496844 -27.185236 26.305712 -13.609700 7.125000 0.000000 0.000000 0.393800 -1.059300 0.386500 
-35.457792 17.206856 -11.172122 42.516356 70.238935 50.136368 -3.066137 0.875002 4.553340 -11.934353 9.907517 -4.430301 -0.276555 9.203413 29.164297 4.179584 -6.389793 27.822820 2.743300 -10.267400 -29.846900 -2.198144 3.486948 -4.489747 14.873250 11.152035 -45.391192 -18.266293 -23.907208 82.968774 3.471811 -11.715331 3.580227 -1.337300 7.322200 -20.673600 -10.678154 -7.622521 20.923986 1.297693 -10.609594 -3.030291 7.175973 -6.035082 0.871630 -10.441546 -3.765971 -5.945363 4.951533 -4.683503 3.463556 7.339800 -0.344500 -3.610200 1.314792 -0.177680 1.275495 -79.681753 -0.613290 37.608224 72.335026 -58.713847 -49.349425 -1.866793 -0.562860 -13.884425 38.167735 17.314282 13.805100 -7.125000 0.000000 0.000000 12.556300 51.288300 1.971200 -5.181731 0.338098 2.336271 76.128465 2.102186 -10.801082 -109.529035 61.569547 -88.177245 1.527198 0.696129 -29.835290 -28.637661 26.186413 -14.345100 7.125000 0.000000 0.000000 -0.283100 -0.570100 -0.280300 
